<svg 
 xmlns="http://www.w3.org/2000/svg"
 xmlns:xlink="http://www.w3.org/1999/xlink"
 width="15px" height="16px">
<path fill-rule="evenodd"  fill="rgb(32, 32, 32)"
 d="M14.042,15.999 L0.957,15.999 C0.428,15.999 -0.000,15.572 -0.000,15.047 L-0.000,6.403 C-0.000,5.878 0.428,5.452 0.957,5.452 L2.578,5.452 L2.578,7.172 C2.364,7.382 2.231,7.675 2.231,7.997 C2.231,8.641 2.756,9.162 3.402,9.162 C4.048,9.162 4.573,8.641 4.573,7.997 C4.573,7.675 4.440,7.382 4.225,7.172 L4.225,5.452 L10.955,5.452 L10.955,7.139 C10.718,7.352 10.568,7.656 10.568,7.998 C10.568,8.641 11.092,9.163 11.738,9.163 C12.384,9.163 12.908,8.641 12.908,7.998 C12.908,7.697 12.791,7.427 12.603,7.220 L12.603,5.452 L14.042,5.452 C14.571,5.452 15.000,5.879 15.000,6.404 L15.000,15.047 C15.000,15.572 14.571,15.999 14.042,15.999 ZM11.778,8.478 C11.513,8.478 11.297,8.263 11.297,7.998 L11.297,4.643 C11.297,2.611 9.634,0.957 7.591,0.957 C5.547,0.957 3.884,2.611 3.884,4.643 L3.884,7.998 C3.884,8.263 3.668,8.479 3.402,8.479 C3.136,8.479 2.920,8.263 2.920,7.998 L2.920,4.643 C2.920,2.083 5.015,-0.002 7.591,-0.002 C10.166,-0.002 12.261,2.083 12.261,4.643 L12.261,7.998 C12.261,8.263 12.045,8.478 11.778,8.478 Z"/>
</svg>