<svg 
 xmlns="http://www.w3.org/2000/svg"
 xmlns:xlink="http://www.w3.org/1999/xlink"
 width="12px" height="13px">
<path fill-rule="evenodd"  fill="rgb(0, 0, 0)"
 d="M9.609,8.172 C9.044,8.172 8.536,8.415 8.176,8.802 L3.962,6.695 C3.976,6.597 3.986,6.496 3.986,6.393 C3.986,6.293 3.977,6.195 3.963,6.099 L8.171,4.015 C8.532,4.405 9.042,4.650 9.609,4.650 C10.702,4.650 11.588,3.745 11.588,2.629 C11.588,1.513 10.702,0.608 9.609,0.608 C8.515,0.608 7.629,1.513 7.629,2.629 C7.629,2.730 7.639,2.827 7.652,2.924 L3.445,5.007 C3.084,4.617 2.574,4.372 2.007,4.372 C0.913,4.372 0.027,5.277 0.027,6.393 C0.027,7.510 0.913,8.414 2.007,8.414 C2.571,8.414 3.079,8.172 3.440,7.785 L7.654,9.891 C7.639,9.990 7.629,10.090 7.629,10.193 C7.629,11.310 8.515,12.214 9.609,12.214 C10.702,12.214 11.588,11.310 11.588,10.193 C11.588,9.077 10.702,8.172 9.609,8.172 Z"/>
</svg>