<svg 
 xmlns="http://www.w3.org/2000/svg"
 xmlns:xlink="http://www.w3.org/1999/xlink"
 width="11px" height="18px">
<path fill-rule="evenodd"  fill="rgb(23, 23, 23)"
 d="M9.781,0.003 L7.343,-0.001 C4.604,-0.001 2.834,1.728 2.834,4.404 L2.834,6.435 L0.383,6.435 C0.171,6.435 -0.001,6.598 -0.001,6.800 L-0.001,9.743 C-0.001,9.945 0.171,10.108 0.383,10.108 L2.834,10.108 L2.834,17.533 C2.834,17.734 3.005,17.898 3.217,17.898 L6.416,17.898 C6.627,17.898 6.799,17.734 6.799,17.533 L6.799,10.108 L9.665,10.108 C9.877,10.108 10.048,9.945 10.048,9.743 L10.050,6.800 C10.050,6.704 10.009,6.610 9.937,6.542 C9.865,6.473 9.768,6.435 9.666,6.435 L6.799,6.435 L6.799,4.713 C6.799,3.886 7.006,3.465 8.138,3.465 L9.781,3.465 C9.993,3.465 10.164,3.302 10.164,3.100 L10.164,0.367 C10.164,0.166 9.993,0.003 9.781,0.003 Z"/>
</svg>