<svg 
 xmlns="http://www.w3.org/2000/svg"
 xmlns:xlink="http://www.w3.org/1999/xlink"
 width="19px" height="20px">
<path fill-rule="evenodd"  fill="rgb(23, 23, 23)"
 d="M13.575,19.999 L5.174,19.999 C2.321,19.999 -0.001,17.625 -0.001,14.707 L-0.001,6.114 C-0.001,3.196 2.321,0.822 5.174,0.822 L13.575,0.822 C16.428,0.822 18.749,3.196 18.749,6.114 L18.749,14.707 C18.749,17.625 16.428,19.999 13.575,19.999 ZM17.086,14.707 L17.086,6.114 C17.086,4.134 15.511,2.523 13.575,2.523 L5.174,2.523 C3.238,2.523 1.663,4.134 1.663,6.114 L1.663,14.707 C1.663,16.687 3.238,18.298 5.174,18.298 L13.575,18.298 C15.511,18.298 17.086,16.687 17.086,14.707 L17.086,14.707 ZM14.408,6.522 C14.088,6.522 13.773,6.388 13.547,6.157 C13.319,5.925 13.188,5.602 13.188,5.274 C13.188,4.945 13.319,4.623 13.547,4.392 C13.773,4.159 14.088,4.027 14.408,4.027 C14.730,4.027 15.045,4.159 15.271,4.392 C15.499,4.623 15.628,4.945 15.628,5.274 C15.628,5.602 15.499,5.925 15.271,6.157 C15.044,6.388 14.730,6.522 14.408,6.522 ZM9.374,15.352 C6.710,15.352 4.543,13.135 4.543,10.411 C4.543,7.686 6.710,5.470 9.374,5.470 C12.038,5.470 14.206,7.686 14.206,10.411 C14.206,13.135 12.038,15.352 9.374,15.352 ZM9.374,7.171 C7.628,7.171 6.206,8.624 6.206,10.411 C6.206,12.197 7.628,13.651 9.374,13.651 C11.121,13.651 12.542,12.197 12.542,10.411 C12.542,8.624 11.121,7.171 9.374,7.171 Z"/>
</svg>