<svg 
 xmlns="http://www.w3.org/2000/svg"
 xmlns:xlink="http://www.w3.org/1999/xlink"
 width="16px" height="15px">
<path fill-rule="evenodd"  fill="rgb(23, 23, 23)"
 d="M15.678,13.393 L10.865,8.881 C11.562,7.962 11.976,6.842 11.976,5.630 C11.976,2.526 9.292,0.012 5.983,0.012 C2.673,0.012 -0.010,2.526 -0.010,5.630 C-0.010,8.733 2.673,11.249 5.983,11.249 C7.276,11.249 8.470,10.861 9.450,10.208 L14.263,14.720 C14.458,14.903 14.715,14.996 14.971,14.996 C15.227,14.996 15.483,14.903 15.678,14.720 C16.069,14.353 16.069,13.758 15.678,13.393 ZM9.238,7.795 L8.845,8.313 L8.292,8.682 C7.611,9.136 6.813,9.375 5.983,9.375 C3.780,9.375 1.988,7.696 1.988,5.630 C1.988,3.565 3.780,1.883 5.983,1.883 C8.186,1.883 9.978,3.565 9.978,5.630 C9.979,6.407 9.722,7.156 9.238,7.795 Z"/>
</svg>