<svg 
 xmlns="http://www.w3.org/2000/svg"
 xmlns:xlink="http://www.w3.org/1999/xlink"
 width="18px" height="15px">
<path fill-rule="evenodd"  fill="rgb(23, 23, 23)"
 d="M16.886,0.654 C16.214,1.068 15.470,1.369 14.678,1.531 C14.044,0.827 13.141,0.389 12.142,0.389 C10.222,0.389 8.666,2.009 8.666,4.004 C8.666,4.287 8.697,4.564 8.756,4.828 C5.868,4.677 3.306,3.237 1.592,1.050 C1.293,1.583 1.122,2.204 1.122,2.867 C1.122,4.122 1.736,5.229 2.668,5.876 C2.098,5.857 1.563,5.694 1.094,5.422 L1.094,5.468 C1.094,7.220 2.292,8.680 3.881,9.013 C3.590,9.095 3.283,9.140 2.966,9.140 C2.741,9.140 2.524,9.117 2.311,9.075 C2.754,10.511 4.037,11.556 5.557,11.586 C4.368,12.555 2.869,13.133 1.241,13.133 C0.960,13.133 0.684,13.116 0.412,13.083 C1.950,14.109 3.776,14.708 5.740,14.708 C12.132,14.708 15.628,9.199 15.628,4.421 L15.617,3.952 C16.298,3.444 16.888,2.808 17.354,2.083 C16.730,2.370 16.061,2.566 15.358,2.653 C16.076,2.205 16.626,1.496 16.886,0.654 Z"/>
</svg>