<?xml version="1.0" encoding="utf-8"?><svg xmlns="http://www.w3.org/2000/svg" xmlns:xlink="http://www.w3.org/1999/xlink"><symbol viewBox="0 0 8 11" id="arrow-left" xmlns="http://www.w3.org/2000/svg"><path fill-rule="evenodd" d="M6.108.06L.814 5.5l5.294 5.441 1.211-1.227-4.1-4.214 4.1-4.213L6.108.06z"/></symbol><symbol viewBox="0 0 8 11" id="arrow-right" xmlns="http://www.w3.org/2000/svg"><path fill-rule="evenodd" d="M1.892 10.94L7.186 5.5 1.892.059.681 1.286l4.1 4.214-4.1 4.213 1.211 1.227z"/></symbol><symbol viewBox="0 0 15 16" id="cart" xmlns="http://www.w3.org/2000/svg"><path fill-rule="evenodd" d="M14.042 15.999H.957A.955.955 0 0 1 0 15.047V6.403c0-.525.428-.951.957-.951h1.621v1.72c-.214.21-.347.503-.347.825 0 .644.525 1.165 1.171 1.165s1.171-.521 1.171-1.165c0-.322-.133-.615-.348-.825v-1.72h6.73v1.687a1.15 1.15 0 0 0-.387.859c0 .643.524 1.165 1.17 1.165.646 0 1.17-.522 1.17-1.165a1.15 1.15 0 0 0-.305-.778V5.452h1.439c.529 0 .958.427.958.952v8.643a.956.956 0 0 1-.958.952zm-2.264-7.521a.481.481 0 0 1-.481-.48V4.643c0-2.032-1.663-3.686-3.706-3.686-2.044 0-3.707 1.654-3.707 3.686v3.355a.482.482 0 0 1-.964 0V4.643c0-2.56 2.095-4.645 4.671-4.645 2.575 0 4.67 2.085 4.67 4.645v3.355c0 .265-.216.48-.483.48z"/></symbol><symbol viewBox="0 0 12 13" id="connect" xmlns="http://www.w3.org/2000/svg"><path fill-rule="evenodd" d="M9.609 8.172c-.565 0-1.073.243-1.433.63L3.962 6.695c.014-.098.024-.199.024-.302 0-.1-.009-.198-.023-.294l4.208-2.084c.361.39.871.635 1.438.635 1.093 0 1.979-.905 1.979-2.021 0-1.116-.886-2.021-1.979-2.021-1.094 0-1.98.905-1.98 2.021 0 .101.01.198.023.295L3.445 5.007a1.954 1.954 0 0 0-1.438-.635c-1.094 0-1.98.905-1.98 2.021 0 1.117.886 2.021 1.98 2.021.564 0 1.072-.242 1.433-.629l4.214 2.106a2.006 2.006 0 0 0-.025.302c0 1.117.886 2.021 1.98 2.021 1.093 0 1.979-.904 1.979-2.021 0-1.116-.886-2.021-1.979-2.021z"/></symbol><symbol viewBox="0 0 11 18" id="facebook" xmlns="http://www.w3.org/2000/svg"><path fill-rule="evenodd" d="M9.781.003L7.343-.001c-2.739 0-4.509 1.729-4.509 4.405v2.031H.383a.375.375 0 0 0-.384.365v2.943c0 .202.172.365.384.365h2.451v7.425c0 .201.171.365.383.365h3.199a.375.375 0 0 0 .383-.365v-7.425h2.866a.374.374 0 0 0 .383-.365L10.05 6.8a.357.357 0 0 0-.113-.258.39.39 0 0 0-.271-.107H6.799V4.713c0-.827.207-1.248 1.339-1.248h1.643a.374.374 0 0 0 .383-.365V.367a.374.374 0 0 0-.383-.364z"/></symbol><symbol viewBox="0 0 11 11" id="heart" xmlns="http://www.w3.org/2000/svg"><path fill-rule="evenodd" d="M10.84 3.88c0 .909-.394 1.727-1.022 2.293h.005L6.435 9.542c-.338.337-.677.673-1.016.673-.339 0-.678-.336-1.016-.673L1.015 6.173h.005A3.078 3.078 0 0 1-.002 3.88 3.105 3.105 0 0 1 3.113.784 3.11 3.11 0 0 1 5.419 1.8 3.11 3.11 0 0 1 7.725.784 3.106 3.106 0 0 1 10.84 3.88z"/></symbol><symbol viewBox="0 0 19 20" id="instagram" xmlns="http://www.w3.org/2000/svg"><path fill-rule="evenodd" d="M13.575 19.999H5.174c-2.853 0-5.175-2.374-5.175-5.292V6.114c0-2.918 2.322-5.292 5.175-5.292h8.401c2.853 0 5.174 2.374 5.174 5.292v8.593c0 2.918-2.321 5.292-5.174 5.292zm3.511-5.292V6.114c0-1.98-1.575-3.591-3.511-3.591H5.174c-1.936 0-3.511 1.611-3.511 3.591v8.593c0 1.98 1.575 3.591 3.511 3.591h8.401c1.936 0 3.511-1.611 3.511-3.591zm-2.678-8.185c-.32 0-.635-.134-.861-.365a1.265 1.265 0 0 1 0-1.765c.226-.233.541-.365.861-.365.322 0 .637.132.863.365a1.269 1.269 0 0 1 0 1.765 1.219 1.219 0 0 1-.863.365zm-5.034 8.83c-2.664 0-4.831-2.217-4.831-4.941 0-2.725 2.167-4.941 4.831-4.941 2.664 0 4.832 2.216 4.832 4.941 0 2.724-2.168 4.941-4.832 4.941zm0-8.181c-1.746 0-3.168 1.453-3.168 3.24 0 1.786 1.422 3.24 3.168 3.24 1.747 0 3.168-1.454 3.168-3.24 0-1.787-1.421-3.24-3.168-3.24z"/></symbol><symbol viewBox="0 0 16 15" id="search" xmlns="http://www.w3.org/2000/svg"><path fill-rule="evenodd" d="M15.678 13.393l-4.813-4.512a5.357 5.357 0 0 0 1.111-3.251c0-3.104-2.684-5.618-5.993-5.618C2.673.012-.01 2.526-.01 5.63c0 3.103 2.683 5.619 5.993 5.619a6.236 6.236 0 0 0 3.467-1.041l4.813 4.512c.195.183.452.276.708.276.256 0 .512-.093.707-.276a.897.897 0 0 0 0-1.327zm-6.44-5.598l-.393.518-.553.369a4.145 4.145 0 0 1-2.309.693c-2.203 0-3.995-1.679-3.995-3.745 0-2.065 1.792-3.747 3.995-3.747 2.203 0 3.995 1.682 3.995 3.747a3.56 3.56 0 0 1-.74 2.165z"/></symbol><symbol viewBox="0 0 18 15" id="twitter" xmlns="http://www.w3.org/2000/svg"><path fill-rule="evenodd" d="M16.886.654a6.808 6.808 0 0 1-2.208.877A3.405 3.405 0 0 0 12.142.389c-1.92 0-3.476 1.62-3.476 3.615 0 .283.031.56.09.824-2.888-.151-5.45-1.591-7.164-3.778a3.705 3.705 0 0 0-.47 1.817c0 1.255.614 2.362 1.546 3.009a3.35 3.35 0 0 1-1.574-.454v.046c0 1.752 1.198 3.212 2.787 3.545a3.37 3.37 0 0 1-1.57.062c.443 1.436 1.726 2.481 3.246 2.511a6.806 6.806 0 0 1-5.145 1.497 9.56 9.56 0 0 0 5.328 1.625c6.392 0 9.888-5.509 9.888-10.287l-.011-.469a7.167 7.167 0 0 0 1.737-1.869 6.751 6.751 0 0 1-1.996.57A3.612 3.612 0 0 0 16.886.654z"/></symbol></svg>